<svg width="62" height="62" viewBox="0 0 62 62" fill="none" xmlns="http://www.w3.org/2000/svg">
<path d="M0.136719 31C0.136719 30.8177 0.113932 30.4531 0.0683594 29.9062C0.0227865 29.3594 0 28.9948 0 28.8125C0 20.974 2.77995 14.2747 8.33984 8.71484C13.8997 3.15495 20.599 0.375 28.4375 0.375C28.6198 0.375 28.9844 0.397785 29.5312 0.443359C30.0781 0.488934 30.4427 0.511719 30.625 0.511719V4.88672V31H4.51172H0.136719ZM10.6641 50.9609C6.92708 46.4036 4.8763 41.2083 4.51172 35.375H35V4.88672C40.8333 5.2513 46.0286 7.30208 50.5859 11.0391C57.6953 16.7812 61.25 24.1641 61.25 33.1875C61.25 41.026 58.4701 47.7253 52.9102 53.2852C47.3503 58.8451 40.651 61.625 32.8125 61.625C23.7891 61.625 16.4062 58.0703 10.6641 50.9609Z" fill="black" fill-opacity="0.15"/>
</svg>
