<svg width="38" height="50" viewBox="0 0 38 50" fill="none" xmlns="http://www.w3.org/2000/svg">
<path d="M36.4375 36.5312C37 37.1875 37.0938 38.0312 36.7188 38.7812C36.4375 39.5312 35.5938 40 34.75 40H22V42.3438L24.8125 46.8438C25.2812 47.875 24.5312 49.0938 23.4062 49.0938H14.5C13.375 49.0938 12.625 47.875 13.0938 46.8438L16 42.3438V40H3.15625C2.3125 40 1.46875 39.5312 1.1875 38.7812C0.8125 38.0312 0.90625 37.1875 1.46875 36.5312L8.96875 28H6.0625C5.21875 28 4.46875 27.5312 4.1875 26.7812C3.8125 26.0312 3.90625 25.1875 4.46875 24.5312L11.7812 16H9.0625C8.21875 16 7.46875 15.5312 7.09375 14.7812C6.8125 14.0312 6.90625 13.0938 7.5625 12.5312L17.875 1.46875C18.4375 0.90625 19.4688 0.90625 20.0312 1.46875L30.3438 12.5312C31 13.0938 31.0938 14.0312 30.8125 14.7812C30.4375 15.5312 29.6875 16 28.8438 16H26.125L33.4375 24.5312C34 25.1875 34.0938 26.0312 33.7188 26.7812C33.4375 27.5312 32.6875 28 31.8438 28H28.9375L36.4375 36.5312Z" fill="black" fill-opacity="0.15"/>
</svg>
