<svg width="62" height="70" viewBox="0 0 62 70" fill="none" xmlns="http://www.w3.org/2000/svg">
<g clip-path="url(#clip0_2474_2739)">
<path d="M54.2773 44.8438H48.5352V37.8711H41.5625V32.1289H48.5352V25.1562H54.2773V32.1289H61.25V37.8711H54.2773V44.8438ZM52.5 61.25H26.25H0C0 58.8802 0.0911458 57.0573 0.273438 55.7812C0.638021 53.9583 4.32943 51.7253 11.3477 49.082C12.4414 48.7174 13.763 48.2617 15.3125 47.7148C17.4089 46.9857 18.6393 46.416 19.0039 46.0059C19.3685 45.5957 19.5508 44.388 19.5508 42.3828C19.5508 42.0182 19.5508 41.7448 19.5508 41.5625C19.5508 40.4688 19.1406 39.3978 18.3203 38.3496C17.5 37.3014 16.862 35.4557 16.4062 32.8125C16.224 31.901 15.9505 31.1719 15.5859 30.625C15.2214 30.0781 14.8568 28.9844 14.4922 27.3438C14.2188 26.5234 14.196 25.7487 14.4238 25.0195C14.6517 24.2904 14.7656 23.8346 14.7656 23.6523C14.5833 22.194 14.401 20.6901 14.2188 19.1406C14.0365 17.0443 14.9479 14.7884 16.9531 12.373C18.9583 9.95768 22.0573 8.75 26.25 8.75C30.4427 8.75 33.5417 9.95768 35.5469 12.373C37.5521 14.7884 38.4635 17.0443 38.2812 19.1406C38.099 20.6901 37.9167 22.194 37.7344 23.6523C37.7344 23.8346 37.8483 24.2904 38.0762 25.0195C38.304 25.7487 38.2812 26.5234 38.0078 27.3438C37.6432 28.9844 37.2786 30.0781 36.9141 30.625C36.5495 31.1719 36.276 31.901 36.0938 32.8125C35.638 35.4557 35 37.3014 34.1797 38.3496C33.3594 39.3978 32.9492 40.4688 32.9492 41.5625C32.9492 44.2969 33.2227 45.8464 33.7695 46.2109C33.9518 46.3932 36.1849 47.2591 40.4688 48.8086C40.651 48.8997 40.8789 48.9909 41.1523 49.082C48.1706 51.7253 51.862 53.9583 52.2266 55.7812L52.5 61.25Z" fill="black" fill-opacity="0.15"/>
</g>
<defs>
<clipPath id="clip0_2474_2739">
<rect width="61.25" height="70" fill="white" transform="matrix(1 0 0 -1 0 70)"/>
</clipPath>
</defs>
</svg>
